<svg width="15" height="13" viewBox="0 0 15 13" fill="none" xmlns="http://www.w3.org/2000/svg">
<path d="M7.50002 8.83333V11.75M7.50002 8.83333L11 11.75M7.50002 8.83333L4.00002 11.75M5.16669 3.58333V6.5M7.50002 4.75V6.5M9.83335 5.91667V6.5M13.3334 1.25H1.66669M2.25002 1.25H12.75V6.03333C12.75 7.01343 12.75 7.50347 12.5593 7.87782C12.3915 8.2071 12.1238 8.47482 11.7945 8.6426C11.4202 8.83333 10.9301 8.83333 9.95002 8.83333H5.05002C4.06993 8.83333 3.57988 8.83333 3.20554 8.6426C2.87625 8.47482 2.60854 8.2071 2.44076 7.87782C2.25002 7.50347 2.25002 7.01343 2.25002 6.03333V1.25Z" stroke="black" stroke-width="1.37005" stroke-linecap="round" stroke-linejoin="round"/>
</svg>
